<svg xmlns="http://www.w3.org/2000/svg" width="1500" height="1500" viewBox="0 0 1500 1500">
<rect width="100%" height="100%" fill="#ffffff"/>
<style>text{font-family:"Noto Sans","Segoe UI","DejaVu Sans",Arial,sans-serif;fill:#1f2937;font-weight:500} .txtbg{fill:#ffffff;opacity:0.98;stroke:#d1d5db;stroke-width:1} .small{font-size:13px} .mid{font-size:22px;font-family:"Noto Sans Symbols 2","Noto Sans Symbols","Segoe UI Symbol","DejaVu Sans","Noto Sans","Segoe UI",sans-serif;font-weight:500} .bold{font-weight:600} .plabel{font-size:13px;font-weight:600;font-family:"Noto Sans Symbols 2","Noto Sans Symbols","Segoe UI Symbol","DejaVu Sans","Noto Sans","Segoe UI",sans-serif;paint-order:stroke;stroke:#ffffff;stroke-width:3;stroke-linejoin:round;}</style>
<circle cx="750.0" cy="750.0" r="520" fill="none" stroke="#111827" stroke-width="3"/>
<circle cx="750.0" cy="750.0" r="470" fill="none" stroke="#6b7280" stroke-width="1.5"/>
<circle cx="750.0" cy="750.0" r="385" fill="none" stroke="#d1d5db" stroke-width="1"/>
<circle cx="750.0" cy="750.0" r="320" fill="none" stroke="#d1d5db" stroke-width="1"/>
<line x1="1156.86" y1="514.71" x2="1200.15" y2="489.68" stroke="#9ca3af" stroke-width="1"/>
<text class="mid" x="1099.77" y="399.73" text-anchor="middle" dominant-baseline="middle">♈</text>
<line x1="984.71" y1="342.80" x2="1009.68" y2="299.48" stroke="#9ca3af" stroke-width="1"/>
<text class="mid" x="877.77" y="271.77" text-anchor="middle" dominant-baseline="middle">♉</text>
<line x1="749.66" y1="280.00" x2="749.63" y2="230.00" stroke="#9ca3af" stroke-width="1"/>
<text class="mid" x="621.54" y="271.96" text-anchor="middle" dominant-baseline="middle">♊</text>
<line x1="514.71" y1="343.14" x2="489.68" y2="299.85" stroke="#9ca3af" stroke-width="1"/>
<text class="mid" x="399.73" y="400.23" text-anchor="middle" dominant-baseline="middle">♋</text>
<line x1="342.80" y1="515.29" x2="299.48" y2="490.32" stroke="#9ca3af" stroke-width="1"/>
<text class="mid" x="271.77" y="622.23" text-anchor="middle" dominant-baseline="middle">♌</text>
<line x1="280.00" y1="750.34" x2="230.00" y2="750.37" stroke="#9ca3af" stroke-width="1"/>
<text class="mid" x="271.96" y="878.46" text-anchor="middle" dominant-baseline="middle">♍</text>
<line x1="343.14" y1="985.29" x2="299.85" y2="1010.32" stroke="#9ca3af" stroke-width="1"/>
<text class="mid" x="400.23" y="1100.27" text-anchor="middle" dominant-baseline="middle">♎</text>
<line x1="515.29" y1="1157.20" x2="490.32" y2="1200.52" stroke="#9ca3af" stroke-width="1"/>
<text class="mid" x="622.23" y="1228.23" text-anchor="middle" dominant-baseline="middle">♏</text>
<line x1="750.34" y1="1220.00" x2="750.37" y2="1270.00" stroke="#9ca3af" stroke-width="1"/>
<text class="mid" x="878.46" y="1228.04" text-anchor="middle" dominant-baseline="middle">♐</text>
<line x1="985.29" y1="1156.86" x2="1010.32" y2="1200.15" stroke="#9ca3af" stroke-width="1"/>
<text class="mid" x="1100.27" y="1099.77" text-anchor="middle" dominant-baseline="middle">♑</text>
<line x1="1157.20" y1="984.71" x2="1200.52" y2="1009.68" stroke="#9ca3af" stroke-width="1"/>
<text class="mid" x="1228.23" y="877.77" text-anchor="middle" dominant-baseline="middle">♒</text>
<line x1="1220.00" y1="749.66" x2="1270.00" y2="749.63" stroke="#9ca3af" stroke-width="1"/>
<text class="mid" x="1228.04" y="621.54" text-anchor="middle" dominant-baseline="middle">♓</text>
<line x1="375.00" y1="750.00" x2="230.00" y2="750.00" stroke="#4b5563" stroke-width="1.2"/>
<line x1="404.93" y1="896.80" x2="271.50" y2="953.56" stroke="#4b5563" stroke-width="1.2"/>
<line x1="515.23" y1="1042.42" x2="424.45" y2="1155.49" stroke="#4b5563" stroke-width="1.2"/>
<line x1="713.35" y1="1123.21" x2="699.18" y2="1267.51" stroke="#4b5563" stroke-width="1.2"/>
<line x1="933.99" y1="1076.76" x2="1005.14" y2="1203.11" stroke="#4b5563" stroke-width="1.2"/>
<line x1="1080.44" y1="927.30" x2="1208.21" y2="995.85" stroke="#4b5563" stroke-width="1.2"/>
<line x1="1125.00" y1="750.00" x2="1270.00" y2="750.00" stroke="#4b5563" stroke-width="1.2"/>
<line x1="1095.07" y1="603.20" x2="1228.50" y2="546.44" stroke="#4b5563" stroke-width="1.2"/>
<line x1="984.77" y1="457.58" x2="1075.55" y2="344.51" stroke="#4b5563" stroke-width="1.2"/>
<line x1="786.65" y1="376.79" x2="800.82" y2="232.49" stroke="#4b5563" stroke-width="1.2"/>
<line x1="566.01" y1="423.24" x2="494.86" y2="296.89" stroke="#4b5563" stroke-width="1.2"/>
<line x1="419.56" y1="572.70" x2="291.79" y2="504.15" stroke="#4b5563" stroke-width="1.2"/>
<line x1="291.79" y1="504.15" x2="196.00" y2="490.91" stroke="#94a3b8" stroke-width="1" stroke-dasharray="3 4"/>
<line x1="230.00" y1="750.00" x2="196.00" y2="776.00" stroke="#94a3b8" stroke-width="1" stroke-dasharray="3 4"/>
<line x1="271.50" y1="953.56" x2="196.00" y2="964.52" stroke="#94a3b8" stroke-width="1" stroke-dasharray="3 4"/>
<line x1="1228.50" y1="546.44" x2="1304.00" y2="535.48" stroke="#94a3b8" stroke-width="1" stroke-dasharray="3 4"/>
<line x1="1270.00" y1="750.00" x2="1304.00" y2="724.00" stroke="#94a3b8" stroke-width="1" stroke-dasharray="3 4"/>
<line x1="1208.21" y1="995.85" x2="1304.00" y2="1009.09" stroke="#94a3b8" stroke-width="1" stroke-dasharray="3 4"/>
<line x1="494.86" y1="296.89" x2="481.13" y2="196.00" stroke="#94a3b8" stroke-width="1" stroke-dasharray="3 4"/>
<line x1="800.82" y1="232.49" x2="803.55" y2="196.00" stroke="#94a3b8" stroke-width="1" stroke-dasharray="3 4"/>
<line x1="1075.55" y1="344.51" x2="1093.08" y2="196.00" stroke="#94a3b8" stroke-width="1" stroke-dasharray="3 4"/>
<line x1="424.45" y1="1155.49" x2="406.92" y2="1304.00" stroke="#94a3b8" stroke-width="1" stroke-dasharray="3 4"/>
<line x1="699.18" y1="1267.51" x2="696.45" y2="1304.00" stroke="#94a3b8" stroke-width="1" stroke-dasharray="3 4"/>
<line x1="1005.14" y1="1203.11" x2="1018.87" y2="1304.00" stroke="#94a3b8" stroke-width="1" stroke-dasharray="3 4"/>
<line x1="549.05" y1="500.96" x2="490.73" y2="937.56" stroke="#dc2626" stroke-width="1.2" opacity="0.9"/>
<line x1="485.40" y1="570.04" x2="491.59" y2="561.26" stroke="#111827" stroke-width="1.2" opacity="0.9"/>
<line x1="430.49" y1="732.23" x2="625.12" y2="455.37" stroke="#2563eb" stroke-width="1.2" opacity="0.9"/>
<line x1="430.49" y1="732.23" x2="865.95" y2="1048.25" stroke="#16a34a" stroke-width="1.2" opacity="0.9"/>
<line x1="533.78" y1="985.90" x2="651.46" y2="445.55" stroke="#16a34a" stroke-width="1.2" opacity="0.9"/>
<line x1="533.78" y1="985.90" x2="625.12" y2="455.37" stroke="#16a34a" stroke-width="1.2" opacity="0.9"/>
<line x1="533.78" y1="985.90" x2="865.95" y2="1048.25" stroke="#2563eb" stroke-width="1.2" opacity="0.9"/>
<line x1="651.46" y1="445.55" x2="625.12" y2="455.37" stroke="#111827" stroke-width="1.2" opacity="0.9"/>
<line x1="651.46" y1="445.55" x2="865.95" y2="1048.25" stroke="#7c3aed" stroke-width="1.2" opacity="0.9"/>
<line x1="490.73" y1="937.56" x2="449.14" y2="640.99" stroke="#2563eb" stroke-width="1.2" opacity="0.9"/>
<line x1="625.12" y1="455.37" x2="865.95" y2="1048.25" stroke="#7c3aed" stroke-width="1.2" opacity="0.9"/>
<line x1="422.94" y1="511.13" x2="491.59" y2="561.26" stroke="#cbd5e1" stroke-width="1" stroke-dasharray="3 4"/>
<line x1="422.94" y1="511.13" x2="309.08" y2="427.97" stroke="#9ca3af" stroke-width="1"/>
<polyline points="309.08,427.97 164.00,427.97 140.00,427.97" fill="none" stroke="#9ca3af" stroke-width="1"/>
<circle cx="422.94" cy="511.13" r="7" fill="#111827"/>
<line x1="415.11" y1="522.24" x2="485.40" y2="570.04" stroke="#cbd5e1" stroke-width="1" stroke-dasharray="3 4"/>
<line x1="415.11" y1="522.24" x2="298.52" y2="442.94" stroke="#9ca3af" stroke-width="1"/>
<polyline points="298.52,442.94 164.00,452.61 140.00,452.61" fill="none" stroke="#9ca3af" stroke-width="1"/>
<circle cx="415.11" cy="522.24" r="7" fill="#111827"/>
<line x1="369.22" y1="612.03" x2="449.14" y2="640.99" stroke="#cbd5e1" stroke-width="1" stroke-dasharray="3 4"/>
<line x1="369.22" y1="612.03" x2="236.66" y2="564.00" stroke="#9ca3af" stroke-width="1"/>
<polyline points="236.66,564.00 164.00,564.00 140.00,564.00" fill="none" stroke="#9ca3af" stroke-width="1"/>
<circle cx="369.22" cy="612.03" r="7" fill="#111827"/>
<line x1="345.62" y1="727.51" x2="430.49" y2="732.23" stroke="#cbd5e1" stroke-width="1" stroke-dasharray="3 4"/>
<line x1="345.62" y1="727.51" x2="204.84" y2="719.68" stroke="#9ca3af" stroke-width="1"/>
<polyline points="204.84,719.68 164.00,719.68 140.00,719.68" fill="none" stroke="#9ca3af" stroke-width="1"/>
<circle cx="345.62" cy="727.51" r="7" fill="#111827"/>
<line x1="421.86" y1="987.38" x2="490.73" y2="937.56" stroke="#cbd5e1" stroke-width="1" stroke-dasharray="3 4"/>
<line x1="421.86" y1="987.38" x2="307.62" y2="1070.03" stroke="#9ca3af" stroke-width="1"/>
<polyline points="307.62,1070.03 164.00,1070.03 140.00,1070.03" fill="none" stroke="#9ca3af" stroke-width="1"/>
<circle cx="421.86" cy="987.38" r="7" fill="#111827"/>
<line x1="495.67" y1="434.81" x2="549.05" y2="500.96" stroke="#cbd5e1" stroke-width="1" stroke-dasharray="3 4"/>
<line x1="495.67" y1="434.81" x2="407.13" y2="325.08" stroke="#9ca3af" stroke-width="1"/>
<polyline points="407.13,325.08 407.13,160.00 407.13,140.00" fill="none" stroke="#9ca3af" stroke-width="1"/>
<circle cx="495.67" cy="434.81" r="7" fill="#111827"/>
<line x1="591.95" y1="377.11" x2="625.12" y2="455.37" stroke="#cbd5e1" stroke-width="1" stroke-dasharray="3 4"/>
<line x1="591.95" y1="377.11" x2="536.93" y2="247.29" stroke="#9ca3af" stroke-width="1"/>
<polyline points="536.93,247.29 536.93,160.00 536.93,140.00" fill="none" stroke="#9ca3af" stroke-width="1"/>
<circle cx="591.95" cy="377.11" r="7" fill="#111827"/>
<line x1="625.29" y1="364.68" x2="651.46" y2="445.55" stroke="#cbd5e1" stroke-width="1" stroke-dasharray="3 4"/>
<line x1="625.29" y1="364.68" x2="581.87" y2="230.53" stroke="#9ca3af" stroke-width="1"/>
<polyline points="581.87,230.53 641.13,160.00 641.13,140.00" fill="none" stroke="#9ca3af" stroke-width="1"/>
<circle cx="625.29" cy="364.68" r="7" fill="#111827"/>
<line x1="476.35" y1="1048.56" x2="533.78" y2="985.90" stroke="#cbd5e1" stroke-width="1" stroke-dasharray="3 4"/>
<line x1="476.35" y1="1048.56" x2="381.08" y2="1152.51" stroke="#9ca3af" stroke-width="1"/>
<polyline points="381.08,1152.51 381.08,1340.00 381.08,1360.00" fill="none" stroke="#9ca3af" stroke-width="1"/>
<circle cx="476.35" cy="1048.56" r="7" fill="#111827"/>
<line x1="896.75" y1="1127.48" x2="865.95" y2="1048.25" stroke="#cbd5e1" stroke-width="1" stroke-dasharray="3 4"/>
<line x1="896.75" y1="1127.48" x2="947.85" y2="1258.89" stroke="#9ca3af" stroke-width="1"/>
<polyline points="947.85,1258.89 947.85,1340.00 947.85,1360.00" fill="none" stroke="#9ca3af" stroke-width="1"/>
<circle cx="896.75" cy="1127.48" r="7" fill="#111827"/>
<rect class="txtbg" x="145.64" y="480.59" width="100.72" height="20.64" rx="8" ry="8"/>
<text class="small" x="196.00" y="490.91" text-anchor="middle" dominant-baseline="middle">XII ♌ 01°45&#x27;</text>
<rect class="txtbg" x="145.64" y="765.68" width="100.72" height="20.64" rx="8" ry="8"/>
<text class="small" x="196.00" y="776.00" text-anchor="middle" dominant-baseline="middle">ASC ♌ 29°58&#x27;</text>
<rect class="txtbg" x="149.67" y="954.20" width="92.66" height="20.64" rx="8" ry="8"/>
<text class="small" x="196.00" y="964.52" text-anchor="middle" dominant-baseline="middle">II ♍ 23°00&#x27;</text>
<rect class="txtbg" x="1249.61" y="525.16" width="108.78" height="20.64" rx="8" ry="8"/>
<text class="small" x="1304.00" y="535.48" text-anchor="middle" dominant-baseline="middle">VIII ♓ 23°00&#x27;</text>
<rect class="txtbg" x="1253.64" y="713.68" width="100.72" height="20.64" rx="8" ry="8"/>
<text class="small" x="1304.00" y="724.00" text-anchor="middle" dominant-baseline="middle">DSC ♒ 29°58&#x27;</text>
<rect class="txtbg" x="1257.67" y="998.77" width="92.66" height="20.64" rx="8" ry="8"/>
<text class="small" x="1304.00" y="1009.09" text-anchor="middle" dominant-baseline="middle">VI ♒ 01°45&#x27;</text>
<rect class="txtbg" x="434.80" y="185.68" width="92.66" height="20.64" rx="8" ry="8"/>
<text class="small" x="481.13" y="196.00" text-anchor="middle" dominant-baseline="middle">XI ♊ 29°21&#x27;</text>
<rect class="txtbg" x="757.22" y="185.68" width="92.66" height="20.64" rx="8" ry="8"/>
<text class="small" x="803.55" y="196.00" text-anchor="middle" dominant-baseline="middle">MC ♉ 24°21&#x27;</text>
<rect class="txtbg" x="1046.75" y="185.68" width="92.66" height="20.64" rx="8" ry="8"/>
<text class="small" x="1093.08" y="196.00" text-anchor="middle" dominant-baseline="middle">IX ♈ 21°12&#x27;</text>
<rect class="txtbg" x="356.56" y="1293.68" width="100.72" height="20.64" rx="8" ry="8"/>
<text class="small" x="406.92" y="1304.00" text-anchor="middle" dominant-baseline="middle">III ♎ 21°12&#x27;</text>
<rect class="txtbg" x="650.12" y="1293.68" width="92.66" height="20.64" rx="8" ry="8"/>
<text class="small" x="696.45" y="1304.00" text-anchor="middle" dominant-baseline="middle">IC ♏ 24°21&#x27;</text>
<rect class="txtbg" x="976.57" y="1293.68" width="84.60" height="20.64" rx="8" ry="8"/>
<text class="small" x="1018.87" y="1304.00" text-anchor="middle" dominant-baseline="middle">V ♐ 29°21&#x27;</text>
<rect class="txtbg" x="97.70" y="417.65" width="84.60" height="20.64" rx="8" ry="8"/>
<text class="plabel" x="140.00" y="427.97" text-anchor="middle" dominant-baseline="middle">♄ ♋ 23°49&#x27;</text>
<rect class="txtbg" x="97.70" y="442.29" width="84.60" height="20.64" rx="8" ry="8"/>
<text class="plabel" x="140.00" y="452.61" text-anchor="middle" dominant-baseline="middle">♀ ♋ 25°44&#x27;</text>
<rect class="txtbg" x="97.70" y="553.68" width="84.60" height="20.64" rx="8" ry="8"/>
<text class="plabel" x="140.00" y="564.00" text-anchor="middle" dominant-baseline="middle">♇ ♌ 10°02&#x27;</text>
<rect class="txtbg" x="97.70" y="709.36" width="84.60" height="20.64" rx="8" ry="8"/>
<text class="plabel" x="140.00" y="719.68" text-anchor="middle" dominant-baseline="middle">♂ ♌ 26°47&#x27;</text>
<rect class="txtbg" x="97.70" y="1059.71" width="84.60" height="20.64" rx="8" ry="8"/>
<text class="plabel" x="140.00" y="1070.03" text-anchor="middle" dominant-baseline="middle">♆ ♎ 05°50&#x27;</text>
<rect class="txtbg" x="364.83" y="129.68" width="84.60" height="20.64" rx="8" ry="8"/>
<text class="plabel" x="407.13" y="140.00" text-anchor="middle" dominant-baseline="middle">☿ ♋ 08°52&#x27;</text>
<rect class="txtbg" x="494.63" y="129.68" width="84.60" height="20.64" rx="8" ry="8"/>
<text class="plabel" x="536.93" y="140.00" text-anchor="middle" dominant-baseline="middle">☉ ♊ 22°56&#x27;</text>
<rect class="txtbg" x="598.83" y="129.68" width="84.60" height="20.64" rx="8" ry="8"/>
<text class="plabel" x="641.13" y="140.00" text-anchor="middle" dominant-baseline="middle">♅ ♊ 17°53&#x27;</text>
<rect class="txtbg" x="338.78" y="1349.68" width="84.60" height="20.64" rx="8" ry="8"/>
<text class="plabel" x="381.08" y="1360.00" text-anchor="middle" dominant-baseline="middle">♃ ♎ 17°27&#x27;</text>
<rect class="txtbg" x="905.55" y="1349.68" width="84.60" height="20.64" rx="8" ry="8"/>
<text class="plabel" x="947.85" y="1360.00" text-anchor="middle" dominant-baseline="middle">☽ ♐ 21°12&#x27;</text>
<text class="mid bold" x="40" y="42">CATMEastrolab Renderer MVP</text>
</svg>