<svg xmlns="http://www.w3.org/2000/svg" width="1200" height="1200" viewBox="0 0 1200 1200">
<rect width="100%" height="100%" fill="#ffffff"/>
<style>text{font-family:"Segoe UI Symbol","Noto Sans Symbols 2","Noto Sans Symbols","DejaVu Sans",Consolas,Menlo,monospace;fill:#1f2937} .small{font-size:14px} .mid{font-size:18px} .bold{font-weight:700} .plabel{font-size:13px;font-weight:700;paint-order:stroke;stroke:#ffffff;stroke-width:3;stroke-linejoin:round;}</style>
<circle cx="600.0" cy="600.0" r="520" fill="none" stroke="#111827" stroke-width="3"/>
<circle cx="600.0" cy="600.0" r="470" fill="none" stroke="#6b7280" stroke-width="1.5"/>
<circle cx="600.0" cy="600.0" r="385" fill="none" stroke="#d1d5db" stroke-width="1"/>
<circle cx="600.0" cy="600.0" r="320" fill="none" stroke="#d1d5db" stroke-width="1"/>
<line x1="1006.86" y1="364.71" x2="1050.15" y2="339.68" stroke="#9ca3af" stroke-width="1"/>
<text class="mid" x="949.77" y="249.73" text-anchor="middle" dominant-baseline="middle">♈</text>
<line x1="834.71" y1="192.80" x2="859.68" y2="149.48" stroke="#9ca3af" stroke-width="1"/>
<text class="mid" x="727.77" y="121.77" text-anchor="middle" dominant-baseline="middle">♉</text>
<line x1="599.66" y1="130.00" x2="599.63" y2="80.00" stroke="#9ca3af" stroke-width="1"/>
<text class="mid" x="471.54" y="121.96" text-anchor="middle" dominant-baseline="middle">♊</text>
<line x1="364.71" y1="193.14" x2="339.68" y2="149.85" stroke="#9ca3af" stroke-width="1"/>
<text class="mid" x="249.73" y="250.23" text-anchor="middle" dominant-baseline="middle">♋</text>
<line x1="192.80" y1="365.29" x2="149.48" y2="340.32" stroke="#9ca3af" stroke-width="1"/>
<text class="mid" x="121.77" y="472.23" text-anchor="middle" dominant-baseline="middle">♌</text>
<line x1="130.00" y1="600.34" x2="80.00" y2="600.37" stroke="#9ca3af" stroke-width="1"/>
<text class="mid" x="121.96" y="728.46" text-anchor="middle" dominant-baseline="middle">♍</text>
<line x1="193.14" y1="835.29" x2="149.85" y2="860.32" stroke="#9ca3af" stroke-width="1"/>
<text class="mid" x="250.23" y="950.27" text-anchor="middle" dominant-baseline="middle">♎</text>
<line x1="365.29" y1="1007.20" x2="340.32" y2="1050.52" stroke="#9ca3af" stroke-width="1"/>
<text class="mid" x="472.23" y="1078.23" text-anchor="middle" dominant-baseline="middle">♏</text>
<line x1="600.34" y1="1070.00" x2="600.37" y2="1120.00" stroke="#9ca3af" stroke-width="1"/>
<text class="mid" x="728.46" y="1078.04" text-anchor="middle" dominant-baseline="middle">♐</text>
<line x1="835.29" y1="1006.86" x2="860.32" y2="1050.15" stroke="#9ca3af" stroke-width="1"/>
<text class="mid" x="950.27" y="949.77" text-anchor="middle" dominant-baseline="middle">♑</text>
<line x1="1007.20" y1="834.71" x2="1050.52" y2="859.68" stroke="#9ca3af" stroke-width="1"/>
<text class="mid" x="1078.23" y="727.77" text-anchor="middle" dominant-baseline="middle">♒</text>
<line x1="1070.00" y1="599.66" x2="1120.00" y2="599.63" stroke="#9ca3af" stroke-width="1"/>
<text class="mid" x="1078.04" y="471.54" text-anchor="middle" dominant-baseline="middle">♓</text>
<line x1="225.00" y1="600.00" x2="80.00" y2="600.00" stroke="#4b5563" stroke-width="1.2"/>
<text class="small" x="62.00" y="600.00" text-anchor="middle" dominant-baseline="middle">H1</text>
<line x1="254.93" y1="746.80" x2="121.50" y2="803.56" stroke="#4b5563" stroke-width="1.2"/>
<text class="small" x="104.93" y="810.61" text-anchor="middle" dominant-baseline="middle">H2</text>
<line x1="365.23" y1="892.42" x2="274.45" y2="1005.49" stroke="#4b5563" stroke-width="1.2"/>
<text class="small" x="263.18" y="1019.52" text-anchor="middle" dominant-baseline="middle">H3</text>
<line x1="563.35" y1="973.21" x2="549.18" y2="1117.51" stroke="#4b5563" stroke-width="1.2"/>
<text class="small" x="547.42" y="1135.42" text-anchor="middle" dominant-baseline="middle">H4</text>
<line x1="783.99" y1="926.76" x2="855.14" y2="1053.11" stroke="#4b5563" stroke-width="1.2"/>
<text class="small" x="863.97" y="1068.79" text-anchor="middle" dominant-baseline="middle">H5</text>
<line x1="930.44" y1="777.30" x2="1058.21" y2="845.85" stroke="#4b5563" stroke-width="1.2"/>
<text class="small" x="1074.07" y="854.36" text-anchor="middle" dominant-baseline="middle">H6</text>
<line x1="975.00" y1="600.00" x2="1120.00" y2="600.00" stroke="#4b5563" stroke-width="1.2"/>
<text class="small" x="1138.00" y="600.00" text-anchor="middle" dominant-baseline="middle">H7</text>
<line x1="945.07" y1="453.20" x2="1078.50" y2="396.44" stroke="#4b5563" stroke-width="1.2"/>
<text class="small" x="1095.07" y="389.39" text-anchor="middle" dominant-baseline="middle">H8</text>
<line x1="834.77" y1="307.58" x2="925.55" y2="194.51" stroke="#4b5563" stroke-width="1.2"/>
<text class="small" x="936.82" y="180.48" text-anchor="middle" dominant-baseline="middle">H9</text>
<line x1="636.65" y1="226.79" x2="650.82" y2="82.49" stroke="#4b5563" stroke-width="1.2"/>
<text class="small" x="652.58" y="64.58" text-anchor="middle" dominant-baseline="middle">H10</text>
<line x1="416.01" y1="273.24" x2="344.86" y2="146.89" stroke="#4b5563" stroke-width="1.2"/>
<text class="small" x="336.03" y="131.21" text-anchor="middle" dominant-baseline="middle">H11</text>
<line x1="269.56" y1="422.70" x2="141.79" y2="354.15" stroke="#4b5563" stroke-width="1.2"/>
<text class="small" x="125.93" y="345.64" text-anchor="middle" dominant-baseline="middle">H12</text>
<line x1="399.05" y1="350.96" x2="340.73" y2="787.56" stroke="#dc2626" stroke-width="1.2" opacity="0.9"/>
<line x1="335.40" y1="420.04" x2="341.59" y2="411.26" stroke="#111827" stroke-width="1.2" opacity="0.9"/>
<line x1="280.49" y1="582.23" x2="475.12" y2="305.37" stroke="#2563eb" stroke-width="1.2" opacity="0.9"/>
<line x1="280.49" y1="582.23" x2="715.95" y2="898.25" stroke="#16a34a" stroke-width="1.2" opacity="0.9"/>
<line x1="383.78" y1="835.90" x2="501.46" y2="295.55" stroke="#16a34a" stroke-width="1.2" opacity="0.9"/>
<line x1="383.78" y1="835.90" x2="475.12" y2="305.37" stroke="#16a34a" stroke-width="1.2" opacity="0.9"/>
<line x1="383.78" y1="835.90" x2="715.95" y2="898.25" stroke="#2563eb" stroke-width="1.2" opacity="0.9"/>
<line x1="501.46" y1="295.55" x2="475.12" y2="305.37" stroke="#111827" stroke-width="1.2" opacity="0.9"/>
<line x1="501.46" y1="295.55" x2="715.95" y2="898.25" stroke="#7c3aed" stroke-width="1.2" opacity="0.9"/>
<line x1="340.73" y1="787.56" x2="299.14" y2="490.99" stroke="#2563eb" stroke-width="1.2" opacity="0.9"/>
<line x1="475.12" y1="305.37" x2="715.95" y2="898.25" stroke="#7c3aed" stroke-width="1.2" opacity="0.9"/>
<line x1="475.29" y1="214.68" x2="460.96" y2="189.89" stroke="#9ca3af" stroke-width="1"/>
<circle cx="475.29" cy="214.68" r="7" fill="#111827"/>
<text class="plabel" x="454.96" y="189.89" text-anchor="end" dominant-baseline="middle" fill="#111827">♅ ♊ 17°53'</text>
<line x1="434.93" y1="210.54" x2="429.53" y2="182.42" stroke="#9ca3af" stroke-width="1"/>
<circle cx="434.93" cy="210.54" r="7" fill="#111827"/>
<text class="plabel" x="423.53" y="182.42" text-anchor="end" dominant-baseline="middle" fill="#111827">☉ ♊ 22°56'</text>
<line x1="345.67" y1="284.81" x2="328.09" y2="263.02" stroke="#9ca3af" stroke-width="1"/>
<circle cx="345.67" cy="284.81" r="7" fill="#111827"/>
<text class="plabel" x="322.09" y="263.02" text-anchor="end" dominant-baseline="middle" fill="#111827">☿ ♋ 08°52'</text>
<line x1="272.94" y1="361.13" x2="246.79" y2="349.46" stroke="#9ca3af" stroke-width="1"/>
<circle cx="272.94" cy="361.13" r="7" fill="#111827"/>
<text class="plabel" x="240.79" y="349.46" text-anchor="end" dominant-baseline="middle" fill="#111827">♄ ♋ 23°49'</text>
<line x1="250.23" y1="362.11" x2="230.45" y2="341.40" stroke="#9ca3af" stroke-width="1"/>
<circle cx="250.23" cy="362.11" r="7" fill="#111827"/>
<text class="plabel" x="224.45" y="341.40" text-anchor="end" dominant-baseline="middle" fill="#111827">♀ ♋ 25°44'</text>
<line x1="219.22" y1="462.03" x2="192.90" y2="452.50" stroke="#9ca3af" stroke-width="1"/>
<circle cx="219.22" cy="462.03" r="7" fill="#111827"/>
<text class="plabel" x="186.90" y="452.50" text-anchor="end" dominant-baseline="middle" fill="#111827">♇ ♌ 10°02'</text>
<line x1="195.62" y1="577.51" x2="167.67" y2="575.96" stroke="#9ca3af" stroke-width="1"/>
<circle cx="195.62" cy="577.51" r="7" fill="#111827"/>
<text class="plabel" x="161.67" y="575.96" text-anchor="end" dominant-baseline="middle" fill="#111827">♂ ♌ 26°47'</text>
<line x1="271.86" y1="837.38" x2="249.18" y2="853.80" stroke="#9ca3af" stroke-width="1"/>
<circle cx="271.86" cy="837.38" r="7" fill="#111827"/>
<text class="plabel" x="243.18" y="853.80" text-anchor="end" dominant-baseline="middle" fill="#111827">♆ ♎ 05°50'</text>
<line x1="326.35" y1="898.56" x2="307.43" y2="919.21" stroke="#9ca3af" stroke-width="1"/>
<circle cx="326.35" cy="898.56" r="7" fill="#111827"/>
<text class="plabel" x="301.43" y="919.21" text-anchor="end" dominant-baseline="middle" fill="#111827">♃ ♎ 17°27'</text>
<line x1="746.75" y1="977.48" x2="756.90" y2="1003.57" stroke="#9ca3af" stroke-width="1"/>
<circle cx="746.75" cy="977.48" r="7" fill="#111827"/>
<text class="plabel" x="762.90" y="1003.57" text-anchor="start" dominant-baseline="middle" fill="#111827">☽ ♐ 21°12'</text>
<text class="mid bold" x="40.00" y="600.00" text-anchor="middle" dominant-baseline="middle">ASC</text>
<text class="mid bold" x="654.73" y="42.68" text-anchor="middle" dominant-baseline="middle">MC</text>
<text class="mid bold" x="545.27" y="1157.32" text-anchor="middle" dominant-baseline="middle">IC</text>
<text class="mid bold" x="1160.00" y="600.00" text-anchor="middle" dominant-baseline="middle">DSC</text>
<text class="mid bold" x="40" y="42">CATMEastrolab Renderer MVP</text>
</svg>