<svg xmlns="http://www.w3.org/2000/svg" width="900" height="900" viewBox="0 0 900 900">
<rect width="100%" height="100%" fill="#ffffff"/>
<style>text{font-family:"Noto Sans Symbols 2","Noto Sans Symbols","Segoe UI Symbol","DejaVu Sans","Noto Sans","Segoe UI",sans-serif;fill:#111827} .lbl{font-size:14px} .val{font-size:13px;font-weight:700}</style>
<text x="30" y="40" font-size="22" fill="#111827">Aspect Grid</text>
<text class="lbl" x="157.00" y="85" text-anchor="middle">☉</text>
<text class="lbl" x="85" y="157.00" text-anchor="middle" dominant-baseline="middle">☉</text>
<text class="lbl" x="231.00" y="85" text-anchor="middle">☽</text>
<text class="lbl" x="85" y="231.00" text-anchor="middle" dominant-baseline="middle">☽</text>
<text class="lbl" x="305.00" y="85" text-anchor="middle">☿</text>
<text class="lbl" x="85" y="305.00" text-anchor="middle" dominant-baseline="middle">☿</text>
<text class="lbl" x="379.00" y="85" text-anchor="middle">♀</text>
<text class="lbl" x="85" y="379.00" text-anchor="middle" dominant-baseline="middle">♀</text>
<text class="lbl" x="453.00" y="85" text-anchor="middle">♂</text>
<text class="lbl" x="85" y="453.00" text-anchor="middle" dominant-baseline="middle">♂</text>
<text class="lbl" x="527.00" y="85" text-anchor="middle">♃</text>
<text class="lbl" x="85" y="527.00" text-anchor="middle" dominant-baseline="middle">♃</text>
<text class="lbl" x="601.00" y="85" text-anchor="middle">♄</text>
<text class="lbl" x="85" y="601.00" text-anchor="middle" dominant-baseline="middle">♄</text>
<text class="lbl" x="675.00" y="85" text-anchor="middle">♅</text>
<text class="lbl" x="85" y="675.00" text-anchor="middle" dominant-baseline="middle">♅</text>
<text class="lbl" x="749.00" y="85" text-anchor="middle">♆</text>
<text class="lbl" x="85" y="749.00" text-anchor="middle" dominant-baseline="middle">♆</text>
<text class="lbl" x="823.00" y="85" text-anchor="middle">♇</text>
<text class="lbl" x="85" y="823.00" text-anchor="middle" dominant-baseline="middle">♇</text>
<rect x="120.00" y="120.00" width="74.00" height="74.00" fill="#f9fafb" stroke="#d1d5db"/>
<rect x="194.00" y="120.00" width="74.00" height="74.00" fill="#ffffff" stroke="#d1d5db"/>
<text class="val" x="231.00" y="157.00" text-anchor="middle" dominant-baseline="middle" fill="#7c3aed">180</text>
<rect x="268.00" y="120.00" width="74.00" height="74.00" fill="#ffffff" stroke="#d1d5db"/>
<rect x="342.00" y="120.00" width="74.00" height="74.00" fill="#ffffff" stroke="#d1d5db"/>
<rect x="416.00" y="120.00" width="74.00" height="74.00" fill="#ffffff" stroke="#d1d5db"/>
<text class="val" x="453.00" y="157.00" text-anchor="middle" dominant-baseline="middle" fill="#2563eb">60</text>
<rect x="490.00" y="120.00" width="74.00" height="74.00" fill="#ffffff" stroke="#d1d5db"/>
<text class="val" x="527.00" y="157.00" text-anchor="middle" dominant-baseline="middle" fill="#16a34a">120</text>
<rect x="564.00" y="120.00" width="74.00" height="74.00" fill="#ffffff" stroke="#d1d5db"/>
<rect x="638.00" y="120.00" width="74.00" height="74.00" fill="#ffffff" stroke="#d1d5db"/>
<text class="val" x="675.00" y="157.00" text-anchor="middle" dominant-baseline="middle" fill="#111827">0</text>
<rect x="712.00" y="120.00" width="74.00" height="74.00" fill="#ffffff" stroke="#d1d5db"/>
<rect x="786.00" y="120.00" width="74.00" height="74.00" fill="#ffffff" stroke="#d1d5db"/>
<rect x="120.00" y="194.00" width="74.00" height="74.00" fill="#ffffff" stroke="#d1d5db"/>
<rect x="194.00" y="194.00" width="74.00" height="74.00" fill="#f9fafb" stroke="#d1d5db"/>
<rect x="268.00" y="194.00" width="74.00" height="74.00" fill="#ffffff" stroke="#d1d5db"/>
<rect x="342.00" y="194.00" width="74.00" height="74.00" fill="#ffffff" stroke="#d1d5db"/>
<rect x="416.00" y="194.00" width="74.00" height="74.00" fill="#ffffff" stroke="#d1d5db"/>
<text class="val" x="453.00" y="231.00" text-anchor="middle" dominant-baseline="middle" fill="#16a34a">120</text>
<rect x="490.00" y="194.00" width="74.00" height="74.00" fill="#ffffff" stroke="#d1d5db"/>
<text class="val" x="527.00" y="231.00" text-anchor="middle" dominant-baseline="middle" fill="#2563eb">60</text>
<rect x="564.00" y="194.00" width="74.00" height="74.00" fill="#ffffff" stroke="#d1d5db"/>
<rect x="638.00" y="194.00" width="74.00" height="74.00" fill="#ffffff" stroke="#d1d5db"/>
<text class="val" x="675.00" y="231.00" text-anchor="middle" dominant-baseline="middle" fill="#7c3aed">180</text>
<rect x="712.00" y="194.00" width="74.00" height="74.00" fill="#ffffff" stroke="#d1d5db"/>
<rect x="786.00" y="194.00" width="74.00" height="74.00" fill="#ffffff" stroke="#d1d5db"/>
<rect x="120.00" y="268.00" width="74.00" height="74.00" fill="#ffffff" stroke="#d1d5db"/>
<rect x="194.00" y="268.00" width="74.00" height="74.00" fill="#ffffff" stroke="#d1d5db"/>
<rect x="268.00" y="268.00" width="74.00" height="74.00" fill="#f9fafb" stroke="#d1d5db"/>
<rect x="342.00" y="268.00" width="74.00" height="74.00" fill="#ffffff" stroke="#d1d5db"/>
<rect x="416.00" y="268.00" width="74.00" height="74.00" fill="#ffffff" stroke="#d1d5db"/>
<rect x="490.00" y="268.00" width="74.00" height="74.00" fill="#ffffff" stroke="#d1d5db"/>
<rect x="564.00" y="268.00" width="74.00" height="74.00" fill="#ffffff" stroke="#d1d5db"/>
<rect x="638.00" y="268.00" width="74.00" height="74.00" fill="#ffffff" stroke="#d1d5db"/>
<rect x="712.00" y="268.00" width="74.00" height="74.00" fill="#ffffff" stroke="#d1d5db"/>
<text class="val" x="749.00" y="305.00" text-anchor="middle" dominant-baseline="middle" fill="#dc2626">90</text>
<rect x="786.00" y="268.00" width="74.00" height="74.00" fill="#ffffff" stroke="#d1d5db"/>
<rect x="120.00" y="342.00" width="74.00" height="74.00" fill="#ffffff" stroke="#d1d5db"/>
<rect x="194.00" y="342.00" width="74.00" height="74.00" fill="#ffffff" stroke="#d1d5db"/>
<rect x="268.00" y="342.00" width="74.00" height="74.00" fill="#ffffff" stroke="#d1d5db"/>
<rect x="342.00" y="342.00" width="74.00" height="74.00" fill="#f9fafb" stroke="#d1d5db"/>
<rect x="416.00" y="342.00" width="74.00" height="74.00" fill="#ffffff" stroke="#d1d5db"/>
<rect x="490.00" y="342.00" width="74.00" height="74.00" fill="#ffffff" stroke="#d1d5db"/>
<rect x="564.00" y="342.00" width="74.00" height="74.00" fill="#ffffff" stroke="#d1d5db"/>
<text class="val" x="601.00" y="379.00" text-anchor="middle" dominant-baseline="middle" fill="#111827">0</text>
<rect x="638.00" y="342.00" width="74.00" height="74.00" fill="#ffffff" stroke="#d1d5db"/>
<rect x="712.00" y="342.00" width="74.00" height="74.00" fill="#ffffff" stroke="#d1d5db"/>
<rect x="786.00" y="342.00" width="74.00" height="74.00" fill="#ffffff" stroke="#d1d5db"/>
<rect x="120.00" y="416.00" width="74.00" height="74.00" fill="#ffffff" stroke="#d1d5db"/>
<rect x="194.00" y="416.00" width="74.00" height="74.00" fill="#ffffff" stroke="#d1d5db"/>
<rect x="268.00" y="416.00" width="74.00" height="74.00" fill="#ffffff" stroke="#d1d5db"/>
<rect x="342.00" y="416.00" width="74.00" height="74.00" fill="#ffffff" stroke="#d1d5db"/>
<rect x="416.00" y="416.00" width="74.00" height="74.00" fill="#f9fafb" stroke="#d1d5db"/>
<rect x="490.00" y="416.00" width="74.00" height="74.00" fill="#ffffff" stroke="#d1d5db"/>
<rect x="564.00" y="416.00" width="74.00" height="74.00" fill="#ffffff" stroke="#d1d5db"/>
<rect x="638.00" y="416.00" width="74.00" height="74.00" fill="#ffffff" stroke="#d1d5db"/>
<rect x="712.00" y="416.00" width="74.00" height="74.00" fill="#ffffff" stroke="#d1d5db"/>
<rect x="786.00" y="416.00" width="74.00" height="74.00" fill="#ffffff" stroke="#d1d5db"/>
<rect x="120.00" y="490.00" width="74.00" height="74.00" fill="#ffffff" stroke="#d1d5db"/>
<rect x="194.00" y="490.00" width="74.00" height="74.00" fill="#ffffff" stroke="#d1d5db"/>
<rect x="268.00" y="490.00" width="74.00" height="74.00" fill="#ffffff" stroke="#d1d5db"/>
<rect x="342.00" y="490.00" width="74.00" height="74.00" fill="#ffffff" stroke="#d1d5db"/>
<rect x="416.00" y="490.00" width="74.00" height="74.00" fill="#ffffff" stroke="#d1d5db"/>
<rect x="490.00" y="490.00" width="74.00" height="74.00" fill="#f9fafb" stroke="#d1d5db"/>
<rect x="564.00" y="490.00" width="74.00" height="74.00" fill="#ffffff" stroke="#d1d5db"/>
<rect x="638.00" y="490.00" width="74.00" height="74.00" fill="#ffffff" stroke="#d1d5db"/>
<text class="val" x="675.00" y="527.00" text-anchor="middle" dominant-baseline="middle" fill="#16a34a">120</text>
<rect x="712.00" y="490.00" width="74.00" height="74.00" fill="#ffffff" stroke="#d1d5db"/>
<rect x="786.00" y="490.00" width="74.00" height="74.00" fill="#ffffff" stroke="#d1d5db"/>
<rect x="120.00" y="564.00" width="74.00" height="74.00" fill="#ffffff" stroke="#d1d5db"/>
<rect x="194.00" y="564.00" width="74.00" height="74.00" fill="#ffffff" stroke="#d1d5db"/>
<rect x="268.00" y="564.00" width="74.00" height="74.00" fill="#ffffff" stroke="#d1d5db"/>
<rect x="342.00" y="564.00" width="74.00" height="74.00" fill="#ffffff" stroke="#d1d5db"/>
<rect x="416.00" y="564.00" width="74.00" height="74.00" fill="#ffffff" stroke="#d1d5db"/>
<rect x="490.00" y="564.00" width="74.00" height="74.00" fill="#ffffff" stroke="#d1d5db"/>
<rect x="564.00" y="564.00" width="74.00" height="74.00" fill="#f9fafb" stroke="#d1d5db"/>
<rect x="638.00" y="564.00" width="74.00" height="74.00" fill="#ffffff" stroke="#d1d5db"/>
<rect x="712.00" y="564.00" width="74.00" height="74.00" fill="#ffffff" stroke="#d1d5db"/>
<rect x="786.00" y="564.00" width="74.00" height="74.00" fill="#ffffff" stroke="#d1d5db"/>
<rect x="120.00" y="638.00" width="74.00" height="74.00" fill="#ffffff" stroke="#d1d5db"/>
<rect x="194.00" y="638.00" width="74.00" height="74.00" fill="#ffffff" stroke="#d1d5db"/>
<rect x="268.00" y="638.00" width="74.00" height="74.00" fill="#ffffff" stroke="#d1d5db"/>
<rect x="342.00" y="638.00" width="74.00" height="74.00" fill="#ffffff" stroke="#d1d5db"/>
<rect x="416.00" y="638.00" width="74.00" height="74.00" fill="#ffffff" stroke="#d1d5db"/>
<rect x="490.00" y="638.00" width="74.00" height="74.00" fill="#ffffff" stroke="#d1d5db"/>
<rect x="564.00" y="638.00" width="74.00" height="74.00" fill="#ffffff" stroke="#d1d5db"/>
<rect x="638.00" y="638.00" width="74.00" height="74.00" fill="#f9fafb" stroke="#d1d5db"/>
<rect x="712.00" y="638.00" width="74.00" height="74.00" fill="#ffffff" stroke="#d1d5db"/>
<rect x="786.00" y="638.00" width="74.00" height="74.00" fill="#ffffff" stroke="#d1d5db"/>
<rect x="120.00" y="712.00" width="74.00" height="74.00" fill="#ffffff" stroke="#d1d5db"/>
<rect x="194.00" y="712.00" width="74.00" height="74.00" fill="#ffffff" stroke="#d1d5db"/>
<rect x="268.00" y="712.00" width="74.00" height="74.00" fill="#ffffff" stroke="#d1d5db"/>
<rect x="342.00" y="712.00" width="74.00" height="74.00" fill="#ffffff" stroke="#d1d5db"/>
<rect x="416.00" y="712.00" width="74.00" height="74.00" fill="#ffffff" stroke="#d1d5db"/>
<rect x="490.00" y="712.00" width="74.00" height="74.00" fill="#ffffff" stroke="#d1d5db"/>
<rect x="564.00" y="712.00" width="74.00" height="74.00" fill="#ffffff" stroke="#d1d5db"/>
<rect x="638.00" y="712.00" width="74.00" height="74.00" fill="#ffffff" stroke="#d1d5db"/>
<rect x="712.00" y="712.00" width="74.00" height="74.00" fill="#f9fafb" stroke="#d1d5db"/>
<rect x="786.00" y="712.00" width="74.00" height="74.00" fill="#ffffff" stroke="#d1d5db"/>
<text class="val" x="823.00" y="749.00" text-anchor="middle" dominant-baseline="middle" fill="#2563eb">60</text>
<rect x="120.00" y="786.00" width="74.00" height="74.00" fill="#ffffff" stroke="#d1d5db"/>
<rect x="194.00" y="786.00" width="74.00" height="74.00" fill="#ffffff" stroke="#d1d5db"/>
<rect x="268.00" y="786.00" width="74.00" height="74.00" fill="#ffffff" stroke="#d1d5db"/>
<rect x="342.00" y="786.00" width="74.00" height="74.00" fill="#ffffff" stroke="#d1d5db"/>
<rect x="416.00" y="786.00" width="74.00" height="74.00" fill="#ffffff" stroke="#d1d5db"/>
<rect x="490.00" y="786.00" width="74.00" height="74.00" fill="#ffffff" stroke="#d1d5db"/>
<rect x="564.00" y="786.00" width="74.00" height="74.00" fill="#ffffff" stroke="#d1d5db"/>
<rect x="638.00" y="786.00" width="74.00" height="74.00" fill="#ffffff" stroke="#d1d5db"/>
<rect x="712.00" y="786.00" width="74.00" height="74.00" fill="#ffffff" stroke="#d1d5db"/>
<rect x="786.00" y="786.00" width="74.00" height="74.00" fill="#f9fafb" stroke="#d1d5db"/>
</svg>